<svg id="Layer_1" data-name="Layer 1" xmlns="http://www.w3.org/2000/svg" viewBox="0 0 900 600"><defs><style>.cls-1{fill:#001628;}.cls-2,.cls-7{fill:none;}.cls-3{fill:#96d8d8;}.cls-4{fill:#c8102e;}.cls-5{fill:#639fb6;}.cls-6{opacity:0.3;}.cls-7{stroke:#355464;stroke-miterlimit:10;stroke-width:0.5px;}</style></defs><rect class="cls-1" x="0.1" y="0.16" width="900" height="600"/><rect class="cls-2" y="150" width="300" height="300"/><path class="cls-1" d="M66.39,366c40.91,3.58,66.86,15.11,79.49,39,43.24-7,83.23-34.74,83.23-70.48,0-47.63-57.7-55.12-59.24-69,24.27,8.8,51-.46,63.74-30.74-37.7-2.79-65.3-16.54-77.24-39.74-46.24,8.23-83.23,38.16-83.23,70.48,0,47.22,60.69,59.73,67.49,69.74C107.5,322.68,78.93,337,66.39,366Z"/><path class="cls-3" d="M138.15,263.06c-5.17-5.26-7.33-9.37-7.33-14.81,0-6.22,3-9.26,3-12.75,0-3-1.88-5.34-5.48-6.05a11,11,0,0,1,7.73-3.69c15.43,0,20,34.11,52.19,32.88,11.48-1.1,22.32-6.68,29.14-16.46-28.12-3.65-53.8-15.6-66.34-35.91h0c-13,2.37-67.58,21.19-66.2,60.55,1.44,41,62.13,52.45,79.11,70.07,13.39,13.9,4,27.9-4.67,33-13.33-34.67-57.14-37.14-74.58-12.11,28.13,3.65,53.8,15.6,66.34,35.91,31-6.51,46-33.71,40.29-53.33-9.43-32.47-70.63-38.18-86.87-68.59-8.67-17.11-1.54-35.38,14.32-46a41.68,41.68,0,0,0-9.07,25.93c1.41,1.54,2,5.13,2,5.21.21,1.25.58,3.9-.08,5.53a28.16,28.16,0,0,0,2.65,5.22c2.12.53,4.51,3.3,4.56,3.36,2.33,2.68,2.7,4.38,2.75,5,1.45,1.29,3,2.53,4.63,3.74,1.37-.16,3.45.5,5.57,1.85,2.44,1.6,3.65,3.18,4,4.36,1.69,1,3.44,2,5.22,2.92,1.36-.37,3.61.06,5.86,1.22s3.93,2.74,4.41,4.07q2.69,1.35,5.4,2.68c1.36-.39,3.63,0,5.9,1.16a9.14,9.14,0,0,1,4.38,4c1.84,1,3.67,1.93,5.47,2.91,1.67-.34,4.34.68,5.8,1.54a9.14,9.14,0,0,1,4.06,4.3c1.82,1.19,3.58,2.4,5.26,3.66a8.8,8.8,0,0,1,5.48,2.41c2.1,1.84,3.19,3.85,3.23,5.26a45.84,45.84,0,0,1,4,4.88c1.72.43,3.46,2.42,4.43,4.43,1.34,2.92,1.17,5,.77,6,2.33,7.27,3,16.41-.79,26.94a3,3,0,0,1-.14.37c7.84-8.53,13.13-19,12.69-31.63C215.82,292.09,155.13,280.69,138.15,263.06Z"/><path class="cls-4" d="M161.44,267.37c-6.93-8-11.36-22.12-19-27.64C139,251.9,146.15,265.22,161.44,267.37Z"/><path class="cls-5" d="M156,381.81a91.75,91.75,0,0,1-4.89,11.88c-12.54-20.31-38.21-32.26-66.34-35.91C113.78,343.21,143.86,358.54,156,381.81ZM217.4,242.18c-29.06,14.57-59.14-.76-71.23-24a91.75,91.75,0,0,1,4.89-11.88c-12.29,2.23-67.59,20.86-66.2,60.55,1.44,41,62.13,52.45,79.11,70.07,13.39,13.9,4,27.9-4.67,33A112.79,112.79,0,0,1,156,381.81c6.32-1.1,25.49-11.25,25.62-30.77.17-26.91-34.61-34-61-50.37-21.7-13.44-25.91-26.78-27-35.22-2.59-19.86,11.43-38,31.8-46.56a42.57,42.57,0,0,0-6.59,6.86,41.68,41.68,0,0,0-9.07,25.93c1.41,1.54,2,5.13,2,5.21.21,1.25.58,3.9-.08,5.53a28.16,28.16,0,0,0,2.65,5.22c2.12.53,4.51,3.3,4.56,3.36,2.33,2.68,2.7,4.38,2.75,5,1.45,1.29,3,2.53,4.63,3.74,1.37-.16,3.45.5,5.57,1.85,2.44,1.6,3.65,3.18,4,4.36,1.69,1,3.44,2,5.22,2.92,1.36-.37,3.61.06,5.86,1.22s3.93,2.74,4.41,4.07q2.69,1.35,5.4,2.68c1.36-.39,3.63,0,5.9,1.16a9.14,9.14,0,0,1,4.38,4c1.84,1,3.67,1.93,5.47,2.91,1.67-.34,4.34.68,5.8,1.54a9.14,9.14,0,0,1,4.06,4.3c1.82,1.19,3.58,2.4,5.26,3.66a8.8,8.8,0,0,1,5.48,2.41c2.1,1.84,3.19,3.85,3.23,5.26a45.84,45.84,0,0,1,4,4.88c1.72.43,3.46,2.42,4.43,4.43,1.34,2.92,1.17,5,.77,6,2.33,7.27,3,16.41-.79,26.94,10-17,9-33.82-2.14-48.06-23.39-29.76-82.23-33.31-82-67.42a29.15,29.15,0,0,1,7.78-19.47,11,11,0,0,1,7.73-3.69c15.43,0,20,34.11,52.19,32.88,11.48-1.1,22.32-6.68,29.14-16.46Z"/><rect class="cls-2" x="600" y="150" width="300" height="300"/><path class="cls-3" d="M666.24,355.61l-9.48,5.47A18.16,18.16,0,0,1,651,347.37V325.49c0-5.29-3.8-8.25-6.84-9.71v39.9l-11.74-.06V287.84a9.76,9.76,0,0,0-3.51-7.55l9.48-5.48a18.21,18.21,0,0,1,5.77,13.72v20.05l6.84-3.95V285.49l11.74-6.78v26.67l-8.41,4.85a19.43,19.43,0,0,1,8.41,16.23v21.6A9.75,9.75,0,0,0,666.24,355.61Zm201.07-8V297.8a21.28,21.28,0,0,0-11.7-19.09L846.44,284l-9.17-5.29v77.07H848.9v-70.1c3.16,1.66,6.78,4.81,6.78,10.17v50.43a19.59,19.59,0,0,0,6.23,14.8l9.19-5.3A10.53,10.53,0,0,1,867.31,347.63ZM746.26,298v57.7l-11.73-.06V324.39l-6.82,3.94,0,27.28H716V289.4l18.51-10.69A21.48,21.48,0,0,1,746.26,298Zm-11.73,18.57V296c0-5.41-3.65-8.59-6.84-10.27V320.5Zm53.58,31.51v-21.6a19.45,19.45,0,0,0-8.4-16.23l8.4-4.85V278.71l-11.74,6.78v19.14l-6.84,3.95V278.71l-11.73,6.78v70.13l11.73.06v-39.9c3,1.46,6.84,4.42,6.84,9.71v21.88a18.16,18.16,0,0,0,5.77,13.71l9.48-5.47A9.78,9.78,0,0,1,788.11,348.06Zm28.53-16V347.2l-2.41,1.39c-3.36-4.5-4.27-8.33-4.41-14.25v-10l12.68-7.32v-7.84l-12.69,7.32c0-13.11,0-27.91,0-30.8,3.19,1.68,6.84,4.86,6.84,10.28v8.74L828.38,298a21.48,21.48,0,0,0-11.81-19.27L798.06,289.4v44.91c0,16.67,14.08,23,14.08,23L828.38,348V325.31ZM708,355.61l-9.48,5.47a18.16,18.16,0,0,1-5.77-13.71V333.45c0-5.29-3.8-8.25-6.84-9.71v31.94l-11.74-.06V306.68h0v-28l9.26,5.34,9.25-5.34A21.48,21.48,0,0,1,704.49,298v15.36l-8.41,4.85a19.43,19.43,0,0,1,8.41,16.23v13.64A9.75,9.75,0,0,0,708,355.61Zm-15.25-43V296c0-5.39-3.66-8.55-6.84-10.23v7.39h0v23.41Z"/><path class="cls-5" d="M651,285.49Zm5.79,62.17V327.08a20.76,20.76,0,0,0-1.18-7.54c-1.52-3.62-4.3-7.46-9.93-7.61a12.68,12.68,0,0,0-7.46,2.11v-25.8c0-4.81-1.72-7.18-2.43-7.95H628.9a9.76,9.76,0,0,1,3.51,7.55v67.78l11.74.06-5.94-3.51V314a22.53,22.53,0,0,1,6.5,2c2.92,1.54,6.28,4.46,6.28,9.43v21.88a18.16,18.16,0,0,0,5.77,13.71l9.48-5.47h-7C658.5,354.84,656.78,352.47,656.78,347.66Zm-10-36.91L656.86,305l5.87.37-8.41,4.85A54.73,54.73,0,0,0,646.78,310.75Zm10.08-25.26V305l-5.87-.38V285.49Zm186.23.45-5.82-7.23v77.07H848.9l-5.81-3.37Zm28,69.84-9.19,5.3a19.59,19.59,0,0,1-6.23-14.8V295.85c0-5.36-3.62-8.51-6.78-10.17l5.43-3.14c5.17,4.35,7.17,8.17,7.17,15.64v49c0,5.27,1.9,7.82,2.65,8.62Zm-137.93-73.2-5.48,3.16c3.19,1.68,6.84,4.86,6.84,10.27v20.54l5.87.53V298.36C740.4,290.82,738.38,287,733.17,282.58Zm-5.41,73H716V289.4l5.87-.27v63.08Zm6.77,0V324.39l-6.82,3.94-5.89-.48,18.58-10.77v35.13l5.86,3.47Zm41.84-70.13Zm3.34,24.74,8.4-4.85-5.87-.37-10.08,5.74A55,55,0,0,1,779.71,310.23Zm2.53-24.74V305l-5.87-.38V285.49Zm9.38,70.12-9.48,5.47a18.16,18.16,0,0,1-5.77-13.71V325.49c0-5-3.35-7.89-6.28-9.43a22.53,22.53,0,0,0-6.5-2,12.7,12.7,0,0,1,7.47-2.11c5.63.15,8.41,4,9.92,7.61a20.76,20.76,0,0,1,1.18,7.54v20.58c0,4.81,1.72,7.18,2.43,7.95Zm-28-41.57v38.13l5.94,3.51-11.73-.06V285.49h5.86ZM828.38,298H822.5c-.07-7.29-2.1-11.09-7.22-15.4l-5.48,3.16c3.19,1.68,6.84,4.86,6.84,10.28v8.74Zm-5.88,19.08-12.68,7.32-5.89-.48,15.64-9.08Zm0,15v15.5l-5.87-.38V332.08Zm-10.37,25.24h0s-14.08-6.34-14.08-23V289.4l5.87-.27v44.73c0,8.45,2.93,13.87,9.24,19.05l9.34-5.33,5.87.37Zm-113.51-59c0-7.54-2-11.39-7.23-15.78l-5.48,3.16c3.18,1.68,6.82,4.84,6.84,10.23v16.62l5.87.38Zm-10.08,20.35L698.63,313l5.87.37-8.41,4.85A54.73,54.73,0,0,0,688.55,318.71ZM701,355.61h7l-9.48,5.47a18.16,18.16,0,0,1-5.77-13.71V333.45c0-5-3.36-7.89-6.28-9.43a22.53,22.53,0,0,0-6.5-2,12.68,12.68,0,0,1,7.46-2.11c5.63.15,8.41,4,9.93,7.61a20.76,20.76,0,0,1,1.18,7.54v12.62C698.55,352.47,700.27,354.84,701,355.61Zm-15.06.07-11.74-.07v-76.9l5.87,7.3v66.2Z"/><path class="cls-5" d="M727.25,240.12c-1.18.13-2.35.27-3.52.42q-3.18,8.82-6.33,17.78c1.9-.31,3.81-.6,5.71-.86l1-3.51c2.56-.34,5.13-.63,7.7-.89l1.79,3.18c1.92-.17,3.84-.33,5.76-.46q-4.57-7.17-9.15-14.23A3.13,3.13,0,0,0,727.25,240.12Zm-2.1,10.33c.59-2,1.19-4,1.78-6.06l3.11,5.5C728.41,250.06,726.78,250.25,725.15,250.45Zm-38,11.17c1.07,2.66-1.34,5.27-1.34,5.28q-6.25,2.3-12.34,5l-3-2.3q5.63-2.58,11.39-4.78s.53-.36.1-1.42-1.06-1-1.06-1q-4.41,1.29-8.74,2.77s-3.55-.22-4.61-2.88c-.13-.31-.25-.61-.37-.92-1.07-2.67,1.24-5.51,1.25-5.51q6.54-2.87,13.28-5.24c.41,1,.83,2.06,1.24,3.1q-5.37,1.89-10.63,4.1s-.51.38-.09,1.44,1,.95,1,.95q4.37-1.42,8.79-2.65s3.64.45,4.71,3.12C686.87,261,687,261.32,687.11,261.62Zm13.57-2.89q5.33-1.44,10.75-2.54c-.35,1.21-.71,2.42-1.06,3.63q-5.88,1.26-11.66,2.91s-3.49-.7-4.19-3.47q-1.5-5.91-3-11.8,7.76-2.36,15.68-4l.82,3.24c-3.49.73-7,1.56-10.41,2.5l.66,2.63c2.38-.65,4.76-1.24,7.15-1.79.28,1.08.55,2.16.82,3.24-2.39.55-4.78,1.14-7.15,1.78l.66,2.6C700,258.75,700.68,258.73,700.68,258.73Zm66.93-19q8.71.74,17.33,2.29c-.14,1.1-.29,2.2-.43,3.31q-3-.54-5.93-1l-1.74,13.24q-2.72-.41-5.44-.72.87-6.62,1.75-13.24-3-.34-6-.6C767.32,241.94,767.46,240.83,767.61,239.73ZM822,255.79l-1,2.51q3.43,1.33,6.82,2.79l-1.26,3.1q-3.37-1.47-6.82-2.79c-.33.82-.67,1.65-1,2.48-.43,1.06.09,1.41.09,1.41,3.43,1.34,6.83,2.78,10.17,4.33l-3,2.29q-5.47-2.46-11.11-4.55s-2.4-2.63-1.32-5.28q2.28-5.64,4.57-11.28,7.64,2.69,15,6c-.41,1-.83,2.06-1.25,3.09C828.64,258.46,825.35,257.07,822,255.79Zm-25.35,2.4c3.26.82,6.5,1.75,9.71,2.76l-2.7,2.66Q798.39,262,793,260.73s-2.71-2.32-2-5.08q1.56-5.88,3.13-11.76c1.79.38,3.57.8,5.34,1.24q-1.56,5.84-3.1,11.66C796.11,257.9,796.67,258.19,796.67,258.19Zm-37.29-19c0,1.11,0,2.23,0,3.34q-3-.15-6-.2l0,13.35c-1.83,0-3.66,0-5.48,0q0-6.69,0-13.36c-1.68,0-3.36.06-5,.11l-1.92-3.26Q750.15,238.71,759.38,239.15Z"/><rect class="cls-2" x="300" y="150" width="300" height="300"/><path class="cls-5" d="M485.53,330.25s4.79,1.12,10.84,1.89c0,0-1.87,5.07-10.12,11.65-4,3.2-10.85,7.51-18,12.14-.15-.26-4-6.9-7.22-28.06a224.55,224.55,0,0,1-2.43-51.4l1.6-25.07a12.88,12.88,0,0,1,7.26-10.79l12.72-6.15-19.16-7a9.47,9.47,0,0,1-5.89-6.49L450,201.38,444.89,221a9.48,9.48,0,0,1-5.9,6.49l-19.15,7,12.72,6.15a12.9,12.9,0,0,1,7.26,10.79l1.59,25.07a224,224,0,0,1-2.42,51.4c-3.27,21.59-7.25,28.07-7.25,28.07h0v0c-7.15-4.65-14-9-18-12.18-8.25-6.58-10.12-11.65-10.12-11.65,6.05-.77,10.84-1.89,10.84-1.89-23.58-16-31.74-35.23-31.74-35.23,0,23.68,2.91,41.08,13.56,54C412.78,368.93,435,379.8,450,398.62l0,0v0l0-.06c15-18.79,37.19-29.65,53.66-49.58,10.65-12.88,13.56-30.28,13.56-54,0,0-8.16,19.2-31.74,35.23"/><path class="cls-3" d="M382.73,295s8.16,19.2,31.74,35.23a61.5,61.5,0,0,1-21.06-10.34A70.21,70.21,0,0,1,382.73,295m123.86,24.89a61.5,61.5,0,0,1-21.06,10.34s4.79,1.12,10.84,1.89a36.63,36.63,0,0,0,12.07-9.44c-3.87,12.07-9.36,21.67-20.16,30.52-8.66,7.1-18.1,12.75-27.9,20.16,2.66-6.22,5.46-12.5,7.91-17.44,0,0-4-6.48-7.23-28.07a224.55,224.55,0,0,1-2.43-51.4l1.6-25.07a12.88,12.88,0,0,1,7.26-10.79l12.72-6.15-19.16-7a9.47,9.47,0,0,1-5.89-6.49L450,201.38v19.43c0,4.65-4.85,4.26-11,6.63h0l-19.15,7a130.49,130.49,0,0,1,30.17-3.6s6.33,0,12,.58c-1.25.33-2.53.71-3.78,1.17-5.06,1.88-7.91,4.73-8.22,13l0,153,0,0v0l0-.06c15-18.79,37.19-29.65,53.66-49.58,10.65-12.88,13.56-30.28,13.56-54a70.21,70.21,0,0,1-10.68,24.89m-66.92-92.77c-.22.1-.44.21-.67.3h0c.24-.09.46-.2.68-.3M431.78,356c-7.15-4.65-14-9-18-12.18-8.25-6.58-10.12-11.65-10.12-11.65a36.63,36.63,0,0,1-12.07-9.44c3.87,12.07,9.35,21.67,20.16,30.52,8.69,7.11,18.15,12.78,28,20.22-2.67-6.23-5.47-12.52-7.92-17.47"/><path class="cls-5" d="M126,532.19v3h-1.76v-8.54h3.33a3.79,3.79,0,0,1,1.69.36,2.52,2.52,0,0,1,1.12,1,2.85,2.85,0,0,1,.39,1.48,2.47,2.47,0,0,1-.85,2,3.62,3.62,0,0,1-2.38.72Zm0-1.42h1.57a1.53,1.53,0,0,0,1.06-.33,1.18,1.18,0,0,0,.37-.94,1.37,1.37,0,0,0-.37-1,1.39,1.39,0,0,0-1-.4H126Z"/><path class="cls-5" d="M135.23,532.07h-1.4v3.13h-1.76v-8.54h3.17a3.56,3.56,0,0,1,2.33.68,2.31,2.31,0,0,1,.82,1.9,2.36,2.36,0,0,1-1.52,2.39l1.85,3.48v.09h-1.89Zm-1.4-1.42h1.42a1.41,1.41,0,0,0,1-.34,1.2,1.2,0,0,0,.37-.93,1.29,1.29,0,0,0-.35-1,1.43,1.43,0,0,0-1-.34h-1.41Z"/><path class="cls-5" d="M141.72,535.2H140v-8.54h1.76Z"/><path class="cls-5" d="M145.76,526.66l2.2,6.19,2.17-6.19h2.31v8.54h-1.76v-2.34l.18-4-2.31,6.36h-1.2l-2.3-6.36.17,4v2.34h-1.75v-8.54Z"/><path class="cls-5" d="M159,533.44h-3.08l-.59,1.76h-1.87l3.18-8.54h1.63l3.19,8.54h-1.87ZM156.41,532h2.14l-1.08-3.19Z"/><path class="cls-5" d="M165.56,532.07h-1.4v3.13H162.4v-8.54h3.17a3.58,3.58,0,0,1,2.33.68,2.31,2.31,0,0,1,.82,1.9,2.66,2.66,0,0,1-.38,1.46,2.55,2.55,0,0,1-1.14.93l1.84,3.48v.09h-1.88Zm-1.4-1.42h1.41a1.42,1.42,0,0,0,1-.34,1.2,1.2,0,0,0,.36-.93,1.29,1.29,0,0,0-.34-1,1.43,1.43,0,0,0-1.05-.34h-1.41Z"/><path class="cls-5" d="M172.84,530.51l1.77-3.85h1.92l-2.8,5.44v3.1H172v-3.1l-2.8-5.44h1.92Z"/><path class="cls-5" d="M420.07,533.25a.89.89,0,0,0-.36-.76,4.23,4.23,0,0,0-1.26-.56,8.58,8.58,0,0,1-1.45-.59,2.35,2.35,0,0,1-1.45-2.11,2,2,0,0,1,.39-1.23,2.45,2.45,0,0,1,1.12-.85,4.23,4.23,0,0,1,1.63-.31,3.68,3.68,0,0,1,1.63.34,2.55,2.55,0,0,1,1.11.93,2.4,2.4,0,0,1,.4,1.37h-1.76a1.14,1.14,0,0,0-.37-.91,1.48,1.48,0,0,0-1-.33,1.66,1.66,0,0,0-1,.28.85.85,0,0,0-.35.72.83.83,0,0,0,.41.69,4.62,4.62,0,0,0,1.24.53,5.19,5.19,0,0,1,2.18,1.12,2.21,2.21,0,0,1,.69,1.66A2.05,2.05,0,0,1,421,535a3.66,3.66,0,0,1-2.25.63,4.38,4.38,0,0,1-1.8-.36,2.79,2.79,0,0,1-1.23-1,2.55,2.55,0,0,1-.43-1.45h1.77c0,.94.56,1.41,1.69,1.41a1.62,1.62,0,0,0,1-.25A.83.83,0,0,0,420.07,533.25Z"/><path class="cls-5" d="M428.27,531.8H424.9v2.28h4v1.41h-5.72V527h5.71v1.43h-4v2h3.37Z"/><path class="cls-5" d="M436.71,532.65a3,3,0,0,1-1,2.17,3.56,3.56,0,0,1-2.42.79,3.23,3.23,0,0,1-2.58-1.1,4.53,4.53,0,0,1-.94-3V531a5.28,5.28,0,0,1,.43-2.17,3.28,3.28,0,0,1,1.24-1.43,3.83,3.83,0,0,1,4.25.29,3.21,3.21,0,0,1,1.05,2.22H435a1.8,1.8,0,0,0-.46-1.2,1.69,1.69,0,0,0-1.2-.37,1.5,1.5,0,0,0-1.32.63,3.55,3.55,0,0,0-.45,2v.64a3.8,3.8,0,0,0,.42,2,1.47,1.47,0,0,0,1.32.63,1.73,1.73,0,0,0,1.22-.37,1.67,1.67,0,0,0,.46-1.15Z"/><path class="cls-5" d="M445,531.42a5.1,5.1,0,0,1-.45,2.21,3.3,3.3,0,0,1-1.27,1.46,3.47,3.47,0,0,1-1.9.52,3.58,3.58,0,0,1-1.9-.51,3.33,3.33,0,0,1-1.28-1.46,5,5,0,0,1-.47-2.17v-.42a5,5,0,0,1,.46-2.22,3.36,3.36,0,0,1,1.28-1.47,3.71,3.71,0,0,1,3.79,0,3.36,3.36,0,0,1,1.28,1.47A5,5,0,0,1,445,531Zm-1.78-.39a3.62,3.62,0,0,0-.48-2,1.71,1.71,0,0,0-2.74,0,3.59,3.59,0,0,0-.49,2v.42a3.65,3.65,0,0,0,.48,2,1.58,1.58,0,0,0,1.39.72,1.54,1.54,0,0,0,1.36-.7,3.69,3.69,0,0,0,.48-2Z"/><path class="cls-5" d="M453.32,535.49h-1.76l-3.42-5.61v5.61h-1.75V527h1.75l3.43,5.63V527h1.75Z"/><path class="cls-5" d="M455,535.49V527h2.62a4,4,0,0,1,2,.51,3.55,3.55,0,0,1,1.38,1.44,4.45,4.45,0,0,1,.5,2.12v.4a4.41,4.41,0,0,1-.49,2.11,3.55,3.55,0,0,1-1.38,1.44,4,4,0,0,1-2,.51Zm1.76-7.1v5.69h.85a1.9,1.9,0,0,0,1.57-.67,3.08,3.08,0,0,0,.56-1.93V531a3.07,3.07,0,0,0-.54-2,1.9,1.9,0,0,0-1.58-.67Z"/><path class="cls-5" d="M467.59,533.74h-3.08l-.59,1.75h-1.87l3.18-8.53h1.63l3.19,8.53h-1.87ZM465,532.31h2.14L466,529.12Z"/><path class="cls-5" d="M474.13,532.37h-1.4v3.12H471V527h3.17a3.58,3.58,0,0,1,2.33.68,2.3,2.3,0,0,1,.82,1.9,2.66,2.66,0,0,1-.38,1.46,2.6,2.6,0,0,1-1.14.92l1.84,3.49v.08h-1.88Zm-1.4-1.42h1.41a1.49,1.49,0,0,0,1-.34,1.23,1.23,0,0,0,.36-.93,1.29,1.29,0,0,0-.34-.95,1.43,1.43,0,0,0-1.05-.34h-1.41Z"/><path class="cls-5" d="M481.41,530.81l1.77-3.85h1.92l-2.8,5.44v3.09h-1.78V532.4L477.71,527h1.93Z"/><path class="cls-5" d="M722.82,533,724,527h1.76l-1.9,8.53h-1.77l-1.39-5.7-1.38,5.7h-1.77l-1.9-8.53h1.76l1.15,6.06,1.41-6.06h1.48Z"/><path class="cls-5" d="M733.8,531.42a5.25,5.25,0,0,1-.44,2.21,3.32,3.32,0,0,1-1.28,1.46,3.45,3.45,0,0,1-1.9.52,3.52,3.52,0,0,1-1.89-.51,3.29,3.29,0,0,1-1.29-1.46,4.84,4.84,0,0,1-.46-2.17v-.42a5.18,5.18,0,0,1,.45-2.22,3.36,3.36,0,0,1,1.28-1.47,3.59,3.59,0,0,1,1.9-.52,3.53,3.53,0,0,1,1.89.52,3.31,3.31,0,0,1,1.29,1.47,5.13,5.13,0,0,1,.45,2.21ZM732,531a3.62,3.62,0,0,0-.48-2,1.71,1.71,0,0,0-2.74,0,3.51,3.51,0,0,0-.48,2v.42a3.65,3.65,0,0,0,.48,2,1.56,1.56,0,0,0,1.38.72,1.54,1.54,0,0,0,1.36-.7,3.52,3.52,0,0,0,.48-2Z"/><path class="cls-5" d="M738.36,532.37H737v3.12H735.2V527h3.17a3.58,3.58,0,0,1,2.33.68,2.3,2.3,0,0,1,.82,1.9,2.37,2.37,0,0,1-1.52,2.38l1.84,3.49v.08H740ZM737,531h1.42a1.46,1.46,0,0,0,1-.34,1.23,1.23,0,0,0,.36-.93,1.29,1.29,0,0,0-.34-.95,1.43,1.43,0,0,0-1-.34H737Z"/><path class="cls-5" d="M743,535.49V527h2.62a4,4,0,0,1,2,.51,3.55,3.55,0,0,1,1.38,1.44,4.45,4.45,0,0,1,.5,2.12v.4a4.41,4.41,0,0,1-.49,2.11,3.55,3.55,0,0,1-1.38,1.44,4,4,0,0,1-2,.51Zm1.76-7.1v5.69h.85a1.9,1.9,0,0,0,1.57-.67,3.08,3.08,0,0,0,.56-1.93V531a3.07,3.07,0,0,0-.54-2,1.9,1.9,0,0,0-1.58-.67Z"/><path class="cls-5" d="M753.19,527l2.2,6.19,2.17-6.19h2.31v8.53h-1.76v-2.33l.18-4L756,535.49h-1.2l-2.3-6.35.17,4v2.33H750.9V527Z"/><path class="cls-5" d="M766.45,533.74h-3.08l-.59,1.75h-1.87l3.18-8.53h1.63l3.19,8.53H767Zm-2.61-1.43H766l-1.08-3.19Z"/><path class="cls-5" d="M773,532.37h-1.4v3.12h-1.76V527H773a3.58,3.58,0,0,1,2.33.68,2.3,2.3,0,0,1,.82,1.9,2.66,2.66,0,0,1-.38,1.46,2.6,2.6,0,0,1-1.14.92l1.84,3.49v.08h-1.88Zm-1.4-1.42H773a1.47,1.47,0,0,0,1-.34,1.23,1.23,0,0,0,.36-.93,1.29,1.29,0,0,0-.34-.95,1.43,1.43,0,0,0-1-.34h-1.41Z"/><path class="cls-5" d="M780.28,532.07l-.92,1v2.43h-1.75V527h1.75v3.87l.78-1.06,2.17-2.81h2.16l-3,3.79,3.12,4.74h-2.09Z"/><g class="cls-6"><line class="cls-7" x1="300" y1="577" x2="300" y2="23"/><line class="cls-7" x1="600" y1="577" x2="600" y2="23"/></g></svg>