<svg id="Layer_1" data-name="Layer 1" xmlns="http://www.w3.org/2000/svg" viewBox="0 0 161.49 483.68"><defs><style>.cls-1{fill:#001628;}.cls-2,.cls-6{fill:none;}.cls-3{fill:#96d8d8;}.cls-4{fill:#c8102e;}.cls-5{fill:#639fb6;}.cls-6{stroke:#639fb6;stroke-miterlimit:10;stroke-width:0.25px;opacity:0.65;}</style></defs><rect class="cls-1" x="0.18" width="161" height="484"/><rect class="cls-2" width="161.49" height="161.49"/><path class="cls-1" d="M39.64,113.18c20.11,1.76,32.87,7.43,39.08,19.17,21.25-3.44,40.91-17.08,40.91-34.65,0-23.41-28.36-27.09-29.12-33.91,11.93,4.32,25.07-.23,31.34-15.12-18.54-1.37-32.11-8.13-38-19.53C61.14,33.18,43,47.89,43,63.79,43,87,72.79,93.14,76.14,98.07,59.85,91.89,45.81,98.93,39.64,113.18Z"/><path class="cls-3" d="M74.92,62.59C72.37,60,71.31,58,71.31,55.3c0-3,1.48-4.55,1.48-6.26a3,3,0,0,0-2.7-3,5.4,5.4,0,0,1,3.8-1.81c7.59,0,9.83,16.77,25.66,16.16a19.52,19.52,0,0,0,14.32-8.09c-13.82-1.79-26.44-7.67-32.6-17.65h0C74.87,35.83,48,45.09,48.72,64.43c.71,20.18,30.54,25.79,38.89,34.45,6.58,6.83,2,13.71-2.3,16.22-6.55-17-28.08-18.26-36.65-5.95,13.82,1.79,26.44,7.66,32.61,17.65,15.24-3.2,22.6-16.57,19.8-26.22-4.63-16-34.72-18.76-42.7-33.71-4.27-8.42-.76-17.4,7-22.62A20.41,20.41,0,0,0,61,57a6.21,6.21,0,0,1,1,2.56,6,6,0,0,1,0,2.72,14.42,14.42,0,0,0,1.3,2.57,5.74,5.74,0,0,1,2.24,1.65A4.68,4.68,0,0,1,66.8,69c.71.63,1.47,1.24,2.28,1.84a4.7,4.7,0,0,1,2.73.9,4.45,4.45,0,0,1,2,2.15c.83.48,1.69,1,2.56,1.43a4.53,4.53,0,0,1,2.89.6,4.43,4.43,0,0,1,2.16,2l2.66,1.32a4.45,4.45,0,0,1,2.9.57,4.55,4.55,0,0,1,2.15,2c.91.47,1.8,1,2.69,1.43a5.06,5.06,0,0,1,2.85.76,4.42,4.42,0,0,1,2,2.11c.9.59,1.77,1.18,2.59,1.8A4.33,4.33,0,0,1,101.91,89a4.13,4.13,0,0,1,1.6,2.58,24.47,24.47,0,0,1,2,2.4A4.7,4.7,0,0,1,108,99.16a20.33,20.33,0,0,1-.39,13.24s0,.12-.07.18c3.85-4.19,6.45-9.35,6.24-15.55C113.1,76.86,83.27,71.25,74.92,62.59Z"/><path class="cls-4" d="M86.37,64.7C83,60.78,80.78,53.83,77,51.12,75.34,57.1,78.85,63.65,86.37,64.7Z"/><path class="cls-5" d="M83.67,121a45.94,45.94,0,0,1-2.4,5.84c-6.17-10-18.79-15.86-32.61-17.65C62.94,102,77.73,109.52,83.67,121Zm30.2-68.64c-14.28,7.16-29.07-.37-35-11.81a44.17,44.17,0,0,1,2.41-5.84c-6,1.1-33.23,10.25-32.55,29.76.71,20.18,30.54,25.79,38.89,34.45,6.58,6.83,2,13.71-2.3,16.22A55.61,55.61,0,0,1,83.67,121c3.11-.54,12.53-5.53,12.59-15.13.09-13.22-17-16.73-30-24.76C55.62,74.47,53.55,67.91,53,63.76,51.74,54,58.63,45.08,68.65,40.87a20,20,0,0,0-3.24,3.38A20.41,20.41,0,0,0,61,57a6.21,6.21,0,0,1,1,2.56,6,6,0,0,1,0,2.72,14.42,14.42,0,0,0,1.3,2.57,5.74,5.74,0,0,1,2.24,1.65A4.68,4.68,0,0,1,66.8,69c.71.63,1.47,1.24,2.28,1.84a4.7,4.7,0,0,1,2.73.9,4.45,4.45,0,0,1,2,2.15c.83.48,1.69,1,2.56,1.43a4.53,4.53,0,0,1,2.89.6,4.43,4.43,0,0,1,2.16,2l2.66,1.32a4.45,4.45,0,0,1,2.9.57,4.55,4.55,0,0,1,2.15,2c.91.47,1.8,1,2.69,1.43a5.06,5.06,0,0,1,2.85.76,4.42,4.42,0,0,1,2,2.11c.9.59,1.77,1.18,2.59,1.8A4.33,4.33,0,0,1,101.91,89a4.13,4.13,0,0,1,1.6,2.58,24.47,24.47,0,0,1,2,2.4A4.7,4.7,0,0,1,108,99.16a20.33,20.33,0,0,1-.39,13.24c4.92-8.34,4.45-16.62-1-23.62C95.09,74.15,66.16,72.4,66.27,55.63a14.4,14.4,0,0,1,3.82-9.57,5.4,5.4,0,0,1,3.8-1.81c7.59,0,9.83,16.77,25.66,16.16a19.52,19.52,0,0,0,14.32-8.09Z"/><rect class="cls-2" y="322.19" width="161.49" height="161.49"/><path class="cls-3" d="M37,432l-5,2.86a9.5,9.5,0,0,1-3-7.17V416.26a5.66,5.66,0,0,0-3.58-5.07v20.86l-6.13,0V396.58a5.11,5.11,0,0,0-1.84-3.95l5-2.86a9.52,9.52,0,0,1,3,7.17v10.48L29,405.36v-10l6.13-3.54v13.94l-4.39,2.53a10.18,10.18,0,0,1,4.39,8.49v11.29A5.11,5.11,0,0,0,37,432Zm105.13-4.17v-26a11.12,11.12,0,0,0-6.12-10l-4.79,2.76-4.8-2.76V432.1h6.08V395.45a6,6,0,0,1,3.55,5.32v26.36a10.26,10.26,0,0,0,3.25,7.74l4.81-2.77A5.52,5.52,0,0,1,142.08,427.84Zm-63.29-26v30.17l-6.14,0V415.69l-3.56,2.06,0,14.26H62.94V397.39l9.68-5.58A11.21,11.21,0,0,1,78.79,401.88Zm-6.13,9.71V400.85a6.05,6.05,0,0,0-3.58-5.37v18.17Zm28,16.47V416.77a10.19,10.19,0,0,0-4.4-8.49l4.4-2.53V391.81l-6.14,3.54v10L91,407.42V391.81l-6.14,3.54V432l6.14,0V411.19a5.65,5.65,0,0,1,3.57,5.07V427.7a9.47,9.47,0,0,0,3,7.17l5-2.86A5.1,5.1,0,0,1,100.67,428.06Zm14.91-8.35v7.91l-1.25.72a11.4,11.4,0,0,1-2.31-7.45v-5.21l6.63-3.82v-4.1L112,411.59c0-6.86,0-14.6,0-16.11a6.05,6.05,0,0,1,3.58,5.37v4.57l6.13-3.54a11.23,11.23,0,0,0-6.17-10.07l-9.68,5.58v23.48a13.46,13.46,0,0,0,7.36,12l8.49-4.9V416.17ZM58.79,432l-5,2.86a9.5,9.5,0,0,1-3-7.17v-7.28a5.66,5.66,0,0,0-3.58-5.07v16.7l-6.14,0V406.43h0V391.81l4.84,2.79,4.84-2.79A11.21,11.21,0,0,1,57,401.88v8l-4.39,2.54A10.15,10.15,0,0,1,57,420.93v7.13A5.11,5.11,0,0,0,58.79,432Zm-8-22.49v-8.69a6.07,6.07,0,0,0-3.58-5.35v3.86h0v12.25Z"/><path class="cls-5" d="M29,395.35Zm3,32.5V417.1a11.06,11.06,0,0,0-.62-4c-.79-1.89-2.25-3.9-5.19-4a6.67,6.67,0,0,0-3.91,1.11V396.79A6,6,0,0,0,21,392.63h-3.6a5.11,5.11,0,0,1,1.84,3.95V432l6.13,0-3.11-1.84V410.28a11.84,11.84,0,0,1,3.4,1.05A5.56,5.56,0,0,1,29,416.26V427.7a9.5,9.5,0,0,0,3,7.17L37,432H33.28A6,6,0,0,1,32,427.85Zm-5.23-19.29,5.27-3,3.06.2-4.39,2.53A28,28,0,0,0,26.78,408.56Zm5.27-13.21v10.2L29,405.36v-10Zm97.36.24-3-3.78V432.1h6.08l-3-1.76Zm14.65,36.51-4.81,2.77a10.26,10.26,0,0,1-3.25-7.74V400.77a6,6,0,0,0-3.55-5.32l2.84-1.64c2.7,2.27,3.75,4.27,3.75,8.17v25.61a6.46,6.46,0,0,0,1.38,4.51ZM71.94,393.83l-2.86,1.65a6.05,6.05,0,0,1,3.58,5.37v10.74l3.06.28v-9.79C75.72,398.14,74.67,396.12,71.94,393.83ZM69.12,432H62.94V397.39l3.07-.14v33Zm3.53,0V415.69l-3.56,2.06L66,417.5l9.71-5.63v18.36l3.07,1.82Zm21.88-36.67Zm1.74,12.93,4.4-2.53-3.07-.2-5.27,3A28.12,28.12,0,0,1,96.27,408.28Zm1.33-12.93v10.2l-3.07-.19v-10ZM102.5,432l-5,2.86a9.47,9.47,0,0,1-3-7.17V416.26a5.56,5.56,0,0,0-3.28-4.93,11.84,11.84,0,0,0-3.4-1.05,6.62,6.62,0,0,1,3.9-1.11c3,.08,4.4,2.09,5.19,4a10.83,10.83,0,0,1,.62,4v10.75A6,6,0,0,0,98.83,432ZM87.85,410.28v19.93L91,432.05l-6.14,0V395.35h3.07Zm33.87-8.4h-3.07a9.2,9.2,0,0,0-3.78-8.05L112,395.48a6.05,6.05,0,0,1,3.58,5.37v4.57Zm-3.07,10L112,415.68l-3.08-.25,8.18-4.75Zm0,7.85v8.1l-3.07-.19v-7.91Zm-5.42,13.2h0a13.46,13.46,0,0,1-7.36-12V397.39l3.07-.13v23.38c0,4.42,1.53,7.25,4.83,10l4.88-2.79,3.07.2ZM53.88,402.08c0-3.94-1.05-6-3.77-8.25l-2.87,1.65a6.07,6.07,0,0,1,3.58,5.35v8.69l3.06.2Zm-5.27,10.64,5.27-3,3.07.19-4.39,2.54A28.39,28.39,0,0,0,48.61,412.72ZM55.11,432h3.68l-5,2.86a9.5,9.5,0,0,1-3-7.17v-7.28a5.54,5.54,0,0,0-3.29-4.92,11.67,11.67,0,0,0-3.4-1.06,6.71,6.71,0,0,1,3.91-1.1c2.94.07,4.39,2.08,5.19,4a11,11,0,0,1,.62,3.94v6.59A6,6,0,0,0,55.11,432Zm-7.87,0-6.14,0v-40.2l3.07,3.81v34.61Z"/><path class="cls-5" d="M68.85,371.63l-1.84.22q-1.67,4.61-3.31,9.29c1-.16,2-.31,3-.45.17-.61.35-1.22.53-1.83,1.34-.18,2.68-.33,4-.46.32.55.63,1.11.94,1.66,1-.09,2-.17,3-.24q-2.4-3.75-4.78-7.44A1.64,1.64,0,0,0,68.85,371.63Zm-1.1,5.4.93-3.17,1.63,2.88Zm-19.89,5.84a3,3,0,0,1-.7,2.76q-3.27,1.2-6.45,2.62L39.14,387c2-.89,4-1.73,6-2.5,0,0,.27-.18,0-.74s-.55-.51-.55-.51c-1.54.45-3.06.94-4.57,1.45a3,3,0,0,1-2.42-1.5l-.19-.48a3.24,3.24,0,0,1,.65-2.88q3.42-1.5,7-2.75c.21.54.43,1.08.65,1.62-1.88.67-3.73,1.38-5.56,2.15,0,0-.27.2,0,.75s.55.5.55.5c1.52-.5,3-1,4.6-1.39a3.27,3.27,0,0,1,2.46,1.63C47.74,382.55,47.8,382.71,47.86,382.87Zm7.1-1.51q2.79-.75,5.62-1.33c-.19.63-.37,1.27-.56,1.9q-3.08.66-6.09,1.52s-1.83-.36-2.19-1.82c-.52-2.05-1-4.11-1.57-6.16,2.7-.82,5.44-1.53,8.2-2.1l.43,1.69q-2.74.57-5.44,1.31c.11.45.23.91.35,1.37,1.23-.34,2.48-.65,3.73-.93.15.56.29,1.12.43,1.69-1.25.28-2.5.6-3.74.93.12.46.23.91.35,1.36S55,381.36,55,381.36Zm35-9.93q4.56.38,9.06,1.19c-.07.58-.15,1.15-.22,1.73-1-.18-2.07-.35-3.1-.5-.31,2.3-.61,4.61-.92,6.92-.94-.14-1.89-.27-2.84-.38.31-2.3.61-4.61.92-6.92-1-.12-2.09-.23-3.13-.31C89.8,372.58,89.87,372,90,371.43Zm28.45,8.39-.54,1.32c1.2.46,2.39.94,3.57,1.46l-.66,1.61c-1.18-.51-2.36-1-3.56-1.46-.18.44-.35.87-.53,1.3s0,.74,0,.74q2.7,1.05,5.32,2.26l-1.57,1.2c-1.92-.86-3.85-1.65-5.82-2.38a3,3,0,0,1-.69-2.76c.8-2,1.6-3.93,2.39-5.9q4,1.41,7.85,3.16c-.21.54-.43,1.08-.65,1.62C121.86,381.22,120.14,380.49,118.4,379.82Zm-13.25,1.26q2.55.65,5.07,1.44l-1.41,1.39c-1.85-.56-3.7-1.06-5.58-1.51a3,3,0,0,1-1-2.65c.55-2.05,1.09-4.1,1.64-6.15.93.2,1.86.42,2.79.65l-1.62,6.1C104.85,380.92,105.15,381.08,105.15,381.08Zm-19.5-10c0,.59,0,1.17,0,1.75-1-.05-2.09-.09-3.14-.11v7c-1,0-1.91,0-2.87,0,0-2.33,0-4.65,0-7q-1.32,0-2.64.06l-1-1.71Q80.82,370.89,85.65,371.12Z"/><rect class="cls-2" y="161.1" width="161.49" height="161.49"/><path class="cls-5" d="M98.93,257.32s2.45.58,5.55,1c0,0-1,2.59-5.18,5.95-2.06,1.65-5.55,3.85-9.2,6.22-.08-.13-2.06-3.53-3.7-14.36a115.4,115.4,0,0,1-1.24-26.32L86,217a6.59,6.59,0,0,1,3.72-5.52l6.51-3.15-9.81-3.6a4.84,4.84,0,0,1-3-3.32l-2.62-10-2.63,10a4.82,4.82,0,0,1-3,3.32l-9.81,3.6,6.51,3.15A6.59,6.59,0,0,1,75.53,217l.82,12.83a115.4,115.4,0,0,1-1.24,26.32c-1.68,11.05-3.72,14.37-3.72,14.37h0c-3.66-2.38-7.16-4.59-9.23-6.24C58,260.89,57,258.3,57,258.3c3.09-.4,5.54-1,5.54-1-12.07-8.2-16.24-18-16.24-18,0,12.12,1.49,21,6.94,27.63,8.44,10.21,19.8,15.77,27.49,25.4h0v0c7.69-9.61,19-15.17,27.47-25.37,5.45-6.6,6.94-15.51,6.94-27.63,0,0-4.18,9.83-16.25,18"/><path class="cls-3" d="M46.31,239.29s4.17,9.83,16.24,18A31.39,31.39,0,0,1,51.77,252a35.9,35.9,0,0,1-5.46-12.74M109.71,252a31.39,31.39,0,0,1-10.78,5.29s2.45.58,5.55,1a19,19,0,0,0,6.18-4.84,30.89,30.89,0,0,1-10.32,15.62c-4.44,3.64-9.26,6.53-14.28,10.33,1.36-3.19,2.79-6.41,4-8.93,0,0-2-3.32-3.71-14.37a115.4,115.4,0,0,1-1.24-26.32L86,217a6.59,6.59,0,0,1,3.72-5.52l6.51-3.15-9.81-3.6a4.84,4.84,0,0,1-3-3.32l-2.62-10v9.94c0,2.38-2.49,2.18-5.65,3.39h0l-9.81,3.6a66.9,66.9,0,0,1,15.45-1.84s3.24,0,6.16.3a19.63,19.63,0,0,0-1.94.59c-2.59,1-4,2.42-4.21,6.68l0,78.3h0v0c7.69-9.61,19-15.17,27.47-25.37,5.45-6.6,6.94-15.51,6.94-27.63A35.81,35.81,0,0,1,109.71,252M75.46,204.54c-.12.05-.23.11-.35.15h0c.12,0,.23-.1.35-.15m-4,66c-3.66-2.38-7.16-4.59-9.23-6.24C58,260.89,57,258.3,57,258.3a19,19,0,0,1-6.19-4.84c2,6.18,4.8,11.09,10.33,15.62,4.44,3.65,9.29,6.55,14.32,10.36-1.36-3.19-2.8-6.42-4-8.95"/><path class="cls-5" d="M68.63,146.29v1.49h-.87v-4.23h1.65a2,2,0,0,1,.84.17,1.3,1.3,0,0,1,.56.5A1.37,1.37,0,0,1,71,145a1.23,1.23,0,0,1-.42,1,1.79,1.79,0,0,1-1.18.36Zm0-.71h.78a.76.76,0,0,0,.53-.16.6.6,0,0,0,.18-.47.65.65,0,0,0-.69-.7h-.8Z"/><path class="cls-5" d="M73.23,146.23h-.7v1.55h-.87v-4.23h1.57a1.8,1.8,0,0,1,1.16.33,1.16,1.16,0,0,1,.41,1,1.25,1.25,0,0,1-.19.72A1.21,1.21,0,0,1,74,146l.92,1.73v0H74Zm-.7-.71h.71a.74.74,0,0,0,.51-.16.6.6,0,0,0,.18-.46.64.64,0,0,0-.17-.47.71.71,0,0,0-.53-.18h-.7Z"/><path class="cls-5" d="M76.45,147.78h-.87v-4.23h.87Z"/><path class="cls-5" d="M78.46,143.55l1.08,3.07,1.09-3.07h1.14v4.23H80.9v-1.16l.08-2-1.14,3.15h-.6l-1.14-3.15.09,2v1.16h-.87v-4.23Z"/><path class="cls-5" d="M85,146.91H83.51l-.29.87h-.93l1.57-4.23h.81l1.59,4.23h-.93Zm-1.3-.71H84.8l-.53-1.58Z"/><path class="cls-5" d="M88.28,146.23h-.7v1.55h-.87v-4.23h1.58a1.77,1.77,0,0,1,1.15.33,1.16,1.16,0,0,1,.41,1,1.25,1.25,0,0,1-.19.72,1.21,1.21,0,0,1-.57.46l.92,1.73v0h-.94Zm-.7-.71h.71a.73.73,0,0,0,.51-.16.6.6,0,0,0,.18-.46.64.64,0,0,0-.17-.47.7.7,0,0,0-.52-.18h-.71Z"/><path class="cls-5" d="M91.89,145.45l.88-1.9h1l-1.39,2.7v1.53h-.89v-1.53l-1.39-2.7h1Z"/><path class="cls-5" d="M65.79,307.69a.46.46,0,0,0-.17-.38A2.41,2.41,0,0,0,65,307a4.09,4.09,0,0,1-.72-.29,1.17,1.17,0,0,1-.72-1.05,1,1,0,0,1,.19-.61,1.28,1.28,0,0,1,.56-.42,2.09,2.09,0,0,1,.81-.15,1.92,1.92,0,0,1,.81.16,1.33,1.33,0,0,1,.55.47,1.21,1.21,0,0,1,.2.68h-.88a.59.59,0,0,0-.18-.46.93.93,0,0,0-1,0,.42.42,0,0,0-.18.35.41.41,0,0,0,.21.35,2.41,2.41,0,0,0,.61.26,2.69,2.69,0,0,1,1.09.56,1.12,1.12,0,0,1,.34.82,1,1,0,0,1-.42.87,1.88,1.88,0,0,1-1.12.31,2.14,2.14,0,0,1-.89-.18,1.37,1.37,0,0,1-.61-.49,1.27,1.27,0,0,1-.21-.72h.87c0,.47.28.7.84.7a.79.79,0,0,0,.49-.13A.41.41,0,0,0,65.79,307.69Z"/><path class="cls-5" d="M69.86,307H68.19v1.13h2v.7H67.32v-4.23h2.83v.7h-2v1h1.67Z"/><path class="cls-5" d="M74.05,307.39a1.48,1.48,0,0,1-.51,1.08,1.76,1.76,0,0,1-1.19.39,1.6,1.6,0,0,1-1.29-.55,2.26,2.26,0,0,1-.46-1.5v-.26a2.6,2.6,0,0,1,.21-1.08,1.6,1.6,0,0,1,.62-.71,1.66,1.66,0,0,1,.93-.25,1.73,1.73,0,0,1,1.18.39,1.62,1.62,0,0,1,.52,1.1h-.88a.83.83,0,0,0-.23-.59.81.81,0,0,0-.59-.19.76.76,0,0,0-.66.32,1.82,1.82,0,0,0-.22,1v.32a1.86,1.86,0,0,0,.21,1,.74.74,0,0,0,.66.32A.88.88,0,0,0,73,308a.84.84,0,0,0,.23-.57Z"/><path class="cls-5" d="M78.16,306.78a2.54,2.54,0,0,1-.22,1.1,1.71,1.71,0,0,1-.63.72,1.78,1.78,0,0,1-1,.26,1.86,1.86,0,0,1-.94-.25,1.7,1.7,0,0,1-.64-.73,2.6,2.6,0,0,1-.23-1.08v-.21a2.57,2.57,0,0,1,.23-1.1,1.69,1.69,0,0,1,.64-.73,1.72,1.72,0,0,1,.94-.25,1.76,1.76,0,0,1,.94.25,1.73,1.73,0,0,1,.63.73,2.57,2.57,0,0,1,.23,1.1Zm-.88-.19a1.75,1.75,0,0,0-.24-1,.84.84,0,0,0-1.36,0,1.74,1.74,0,0,0-.24,1v.21a1.82,1.82,0,0,0,.24,1,.78.78,0,0,0,.68.35.77.77,0,0,0,.68-.34,2,2,0,0,0,.24-1Z"/><path class="cls-5" d="M82.3,308.8h-.88L79.73,306v2.79h-.88v-4.23h.88l1.7,2.79v-2.79h.87Z"/><path class="cls-5" d="M83.12,308.8v-4.23h1.3a2,2,0,0,1,1,.25,1.81,1.81,0,0,1,.69.71,2.27,2.27,0,0,1,.24,1.06v.19a2.2,2.2,0,0,1-.24,1.05,1.67,1.67,0,0,1-.68.71,2,2,0,0,1-1,.26Zm.87-3.53v2.83h.42a1,1,0,0,0,.78-.33,1.52,1.52,0,0,0,.28-1v-.23a1.5,1.5,0,0,0-.27-1,.93.93,0,0,0-.78-.34Z"/><path class="cls-5" d="M89.38,307.93H87.85l-.29.87h-.93l1.58-4.23H89l1.59,4.23h-.93Zm-1.3-.71h1.06l-.53-1.58Z"/><path class="cls-5" d="M92.62,307.25h-.69v1.55h-.88v-4.23h1.58a1.82,1.82,0,0,1,1.16.33,1.16,1.16,0,0,1,.4,1,1.27,1.27,0,0,1-.19.72,1.3,1.3,0,0,1-.56.46l.91,1.73v0h-.93Zm-.69-.71h.7a.73.73,0,0,0,.51-.16.62.62,0,0,0,.18-.46.69.69,0,0,0-.17-.48.72.72,0,0,0-.52-.17h-.7Z"/><path class="cls-5" d="M96.24,306.47l.88-1.9h.95l-1.39,2.69v1.54h-.89v-1.54l-1.39-2.69h1Z"/><path class="cls-5" d="M67.21,468.68l.57-3h.87l-.94,4.24h-.88l-.69-2.84-.69,2.84h-.87l-.94-4.24h.87l.57,3,.7-3h.73Z"/><path class="cls-5" d="M72.66,467.88a2.65,2.65,0,0,1-.22,1.09,1.63,1.63,0,0,1-.64.73,1.72,1.72,0,0,1-.94.26,1.77,1.77,0,0,1-.94-.26,1.73,1.73,0,0,1-.64-.72,2.45,2.45,0,0,1-.23-1.08v-.21a2.54,2.54,0,0,1,.23-1.1,1.68,1.68,0,0,1,.63-.73,1.85,1.85,0,0,1,1.89,0,1.68,1.68,0,0,1,.63.73,2.54,2.54,0,0,1,.23,1.1Zm-.89-.2a1.86,1.86,0,0,0-.23-1,.78.78,0,0,0-.68-.34.77.77,0,0,0-.68.34,1.74,1.74,0,0,0-.24,1v.21a1.87,1.87,0,0,0,.23,1,.78.78,0,0,0,.69.36.8.8,0,0,0,.68-.34,1.86,1.86,0,0,0,.23-1Z"/><path class="cls-5" d="M74.92,468.35h-.7v1.55h-.87v-4.24h1.58a1.72,1.72,0,0,1,1.15.34,1.16,1.16,0,0,1,.41.94,1.25,1.25,0,0,1-.19.72,1.23,1.23,0,0,1-.57.47l.92,1.73v0h-.94Zm-.7-.71h.71a.73.73,0,0,0,.51-.17.59.59,0,0,0,.18-.46.66.66,0,0,0-.17-.47.74.74,0,0,0-.52-.17h-.71Z"/><path class="cls-5" d="M77.21,469.9v-4.24h1.31a2,2,0,0,1,1,.25,1.71,1.71,0,0,1,.69.72,2.14,2.14,0,0,1,.25,1.05v.2a2.26,2.26,0,0,1-.24,1.05,1.81,1.81,0,0,1-.69.71,2,2,0,0,1-1,.26Zm.87-3.53v2.83h.43a1,1,0,0,0,.78-.34,1.54,1.54,0,0,0,.28-1v-.22a1.53,1.53,0,0,0-.27-1,1,1,0,0,0-.78-.33Z"/><path class="cls-5" d="M82.28,465.66l1.09,3.07,1.08-3.07H85.6v4.24h-.88v-1.16l.09-2-1.14,3.16h-.6l-1.14-3.16.09,2v1.16h-.88v-4.24Z"/><path class="cls-5" d="M88.86,469H87.33l-.29.88h-.93l1.58-4.24h.81l1.58,4.24h-.92Zm-1.29-.7h1.06l-.54-1.59Z"/><path class="cls-5" d="M92.11,468.35h-.7v1.55h-.87v-4.24h1.57a1.75,1.75,0,0,1,1.16.34,1.16,1.16,0,0,1,.41.94,1.33,1.33,0,0,1-.19.72,1.34,1.34,0,0,1-.57.47l.92,1.73v0H92.9Zm-.7-.71h.71a.72.72,0,0,0,.5-.17.59.59,0,0,0,.18-.46.62.62,0,0,0-.17-.47.71.71,0,0,0-.52-.17h-.7Z"/><path class="cls-5" d="M95.73,468.2l-.46.49v1.21H94.4v-4.24h.87v1.92l.39-.52,1.07-1.4h1.08l-1.51,1.88,1.55,2.36h-1Z"/><line class="cls-6" x1="-0.32" y1="161.5" x2="161.68" y2="161.5"/><line class="cls-6" x1="-0.32" y1="322.58" x2="161.68" y2="322.58"/></svg>